<mxfile host="app.diagrams.net" modified="2021-07-10T14:03:19.048Z" agent="5.0 (Windows NT 10.0; Win64; x64) AppleWebKit/537.36 (KHTML, like Gecko) Chrome/91.0.4472.124 Safari/537.36" etag="IFgi9Kw6j_h4CUMjlRrT" version="14.8.5" type="github">
  <diagram id="zJWRnRR3A8hzVvXrOkDb" name="Page-1">
    <mxGraphModel dx="644" dy="891" grid="1" gridSize="10" guides="1" tooltips="1" connect="0" arrows="1" fold="1" page="1" pageScale="1" pageWidth="827" pageHeight="1169" math="0" shadow="0">
      <root>
        <mxCell id="0" />
        <mxCell id="1" parent="0" />
        <mxCell id="JmKnKTbz5Rw5Xbmf4Nzb-1" value="L&#39;utilisateur a saisi 3 caractères ou plus" style="rounded=1;whiteSpace=wrap;html=1;" parent="1" vertex="1">
          <mxGeometry x="280" y="40" width="120" height="60" as="geometry" />
        </mxCell>
        <mxCell id="JmKnKTbz5Rw5Xbmf4Nzb-3" value="Aucune recette n&#39;apparaît, à la place un message s&#39;affiche pour conseiller une nouvelle recherche à l&#39;utilisateur" style="rounded=0;whiteSpace=wrap;html=1;" parent="1" vertex="1">
          <mxGeometry x="500" y="120" width="160" height="80" as="geometry" />
        </mxCell>
        <mxCell id="JmKnKTbz5Rw5Xbmf4Nzb-18" value="Oui" style="text;html=1;align=center;verticalAlign=middle;resizable=0;points=[];autosize=1;strokeColor=none;" parent="1" vertex="1">
          <mxGeometry x="335" y="140" width="30" height="20" as="geometry" />
        </mxCell>
        <mxCell id="JmKnKTbz5Rw5Xbmf4Nzb-20" value="" style="endArrow=classic;html=1;entryX=0.54;entryY=1.023;entryDx=0;entryDy=0;entryPerimeter=0;" parent="1" target="GQ3ioMBSsDiSAcyJLFW1-5" edge="1">
          <mxGeometry width="50" height="50" relative="1" as="geometry">
            <mxPoint x="380.84000000000003" y="470" as="sourcePoint" />
            <mxPoint x="379.99999999999994" y="637.8299999999999" as="targetPoint" />
            <Array as="points">
              <mxPoint x="381" y="520" />
              <mxPoint x="585" y="520" />
            </Array>
          </mxGeometry>
        </mxCell>
        <mxCell id="JmKnKTbz5Rw5Xbmf4Nzb-29" value="" style="endArrow=classic;html=1;exitX=-0.032;exitY=0.483;exitDx=0;exitDy=0;exitPerimeter=0;entryX=0.486;entryY=-0.026;entryDx=0;entryDy=0;entryPerimeter=0;" parent="1" source="JmKnKTbz5Rw5Xbmf4Nzb-1" edge="1" target="JmKnKTbz5Rw5Xbmf4Nzb-35">
          <mxGeometry width="50" height="50" relative="1" as="geometry">
            <mxPoint x="80" y="120" as="sourcePoint" />
            <mxPoint x="90" y="140" as="targetPoint" />
            <Array as="points">
              <mxPoint x="98" y="69" />
            </Array>
          </mxGeometry>
        </mxCell>
        <mxCell id="JmKnKTbz5Rw5Xbmf4Nzb-30" value="Non" style="text;html=1;align=center;verticalAlign=middle;resizable=0;points=[];autosize=1;strokeColor=none;" parent="1" vertex="1">
          <mxGeometry x="160" y="70" width="40" height="20" as="geometry" />
        </mxCell>
        <mxCell id="JmKnKTbz5Rw5Xbmf4Nzb-35" value="&lt;span&gt;Toutes les recettes restent affichées.&lt;/span&gt;" style="rounded=0;whiteSpace=wrap;html=1;" parent="1" vertex="1">
          <mxGeometry x="40" y="140" width="120" height="60" as="geometry" />
        </mxCell>
        <mxCell id="GQ3ioMBSsDiSAcyJLFW1-2" value="La recette contient dans son titre, ses ingrédients ou sa description la valeur saisie dans l&#39;input par l&#39;utilisateur?" style="rounded=1;whiteSpace=wrap;html=1;" vertex="1" parent="1">
          <mxGeometry x="270" y="380" width="140" height="90" as="geometry" />
        </mxCell>
        <mxCell id="GQ3ioMBSsDiSAcyJLFW1-3" value="" style="endArrow=none;html=1;" edge="1" parent="1">
          <mxGeometry width="50" height="50" relative="1" as="geometry">
            <mxPoint x="339.40999999999997" y="380" as="sourcePoint" />
            <mxPoint x="339.40999999999997" y="330" as="targetPoint" />
          </mxGeometry>
        </mxCell>
        <mxCell id="GQ3ioMBSsDiSAcyJLFW1-4" value="La recette renvoie &quot;true&quot; et reste dans les résultats de recherche." style="rounded=0;whiteSpace=wrap;html=1;" vertex="1" parent="1">
          <mxGeometry x="40" y="410" width="120" height="60" as="geometry" />
        </mxCell>
        <mxCell id="GQ3ioMBSsDiSAcyJLFW1-5" value="La recette renvoie &quot;false&quot; et disparaît des résultats de recherche." style="rounded=0;whiteSpace=wrap;html=1;" vertex="1" parent="1">
          <mxGeometry x="520" y="410" width="120" height="60" as="geometry" />
        </mxCell>
        <mxCell id="GQ3ioMBSsDiSAcyJLFW1-6" value="&lt;span&gt;La fonction se lance.&amp;nbsp;&lt;/span&gt;&lt;br&gt;&lt;span&gt;Elle vérifie si la valeur saisie dans l&#39;input par l&#39;utilisateur est présente dans le titre, les ingrédients ou la description de chaque recette.&lt;/span&gt;" style="rounded=0;whiteSpace=wrap;html=1;" vertex="1" parent="1">
          <mxGeometry x="268" y="200" width="146" height="130" as="geometry" />
        </mxCell>
        <mxCell id="GQ3ioMBSsDiSAcyJLFW1-7" value="Toutes les recettes renvoient &quot;true&quot; ?" style="rounded=1;whiteSpace=wrap;html=1;" vertex="1" parent="1">
          <mxGeometry x="40" y="280" width="120" height="60" as="geometry" />
        </mxCell>
        <mxCell id="GQ3ioMBSsDiSAcyJLFW1-8" value="Toutes les recettes renvoient &quot;false&quot; ?" style="rounded=1;whiteSpace=wrap;html=1;" vertex="1" parent="1">
          <mxGeometry x="520" y="280" width="120" height="60" as="geometry" />
        </mxCell>
        <mxCell id="GQ3ioMBSsDiSAcyJLFW1-9" value="" style="endArrow=classic;html=1;exitX=0.203;exitY=1.015;exitDx=0;exitDy=0;exitPerimeter=0;" edge="1" parent="1" source="GQ3ioMBSsDiSAcyJLFW1-2">
          <mxGeometry width="50" height="50" relative="1" as="geometry">
            <mxPoint x="230" y="590" as="sourcePoint" />
            <mxPoint x="100" y="470" as="targetPoint" />
            <Array as="points">
              <mxPoint x="298" y="520" />
              <mxPoint x="100" y="520" />
            </Array>
          </mxGeometry>
        </mxCell>
        <mxCell id="GQ3ioMBSsDiSAcyJLFW1-11" value="" style="endArrow=classic;html=1;entryX=0.496;entryY=1.013;entryDx=0;entryDy=0;entryPerimeter=0;" edge="1" parent="1" target="JmKnKTbz5Rw5Xbmf4Nzb-35">
          <mxGeometry width="50" height="50" relative="1" as="geometry">
            <mxPoint x="99.41" y="280" as="sourcePoint" />
            <mxPoint x="99.41" y="210" as="targetPoint" />
          </mxGeometry>
        </mxCell>
        <mxCell id="GQ3ioMBSsDiSAcyJLFW1-12" value="" style="endArrow=classic;html=1;exitX=0.496;exitY=-0.007;exitDx=0;exitDy=0;exitPerimeter=0;" edge="1" parent="1" source="GQ3ioMBSsDiSAcyJLFW1-8">
          <mxGeometry width="50" height="50" relative="1" as="geometry">
            <mxPoint x="579.41" y="270" as="sourcePoint" />
            <mxPoint x="579.41" y="200" as="targetPoint" />
          </mxGeometry>
        </mxCell>
        <mxCell id="GQ3ioMBSsDiSAcyJLFW1-13" value="Non" style="text;html=1;align=center;verticalAlign=middle;resizable=0;points=[];autosize=1;strokeColor=none;" vertex="1" parent="1">
          <mxGeometry x="460" y="500" width="40" height="20" as="geometry" />
        </mxCell>
        <mxCell id="GQ3ioMBSsDiSAcyJLFW1-14" value="Oui" style="text;html=1;align=center;verticalAlign=middle;resizable=0;points=[];autosize=1;strokeColor=none;" vertex="1" parent="1">
          <mxGeometry x="175" y="500" width="30" height="20" as="geometry" />
        </mxCell>
        <mxCell id="GQ3ioMBSsDiSAcyJLFW1-16" value="Non" style="text;html=1;align=center;verticalAlign=middle;resizable=0;points=[];autosize=1;strokeColor=none;" vertex="1" parent="1">
          <mxGeometry x="540" y="230" width="40" height="20" as="geometry" />
        </mxCell>
        <mxCell id="GQ3ioMBSsDiSAcyJLFW1-17" value="" style="endArrow=none;html=1;" edge="1" parent="1">
          <mxGeometry width="50" height="50" relative="1" as="geometry">
            <mxPoint x="578.8199999999999" y="410" as="sourcePoint" />
            <mxPoint x="578.8199999999999" y="340" as="targetPoint" />
          </mxGeometry>
        </mxCell>
        <mxCell id="GQ3ioMBSsDiSAcyJLFW1-18" value="" style="endArrow=none;html=1;" edge="1" parent="1">
          <mxGeometry width="50" height="50" relative="1" as="geometry">
            <mxPoint x="99.41" y="410" as="sourcePoint" />
            <mxPoint x="99.41" y="340" as="targetPoint" />
          </mxGeometry>
        </mxCell>
        <mxCell id="GQ3ioMBSsDiSAcyJLFW1-19" value="Oui" style="text;html=1;align=center;verticalAlign=middle;resizable=0;points=[];autosize=1;strokeColor=none;" vertex="1" parent="1">
          <mxGeometry x="105" y="240" width="30" height="20" as="geometry" />
        </mxCell>
        <mxCell id="GQ3ioMBSsDiSAcyJLFW1-20" value="" style="endArrow=classic;html=1;" edge="1" parent="1">
          <mxGeometry width="50" height="50" relative="1" as="geometry">
            <mxPoint x="339.40999999999997" y="100" as="sourcePoint" />
            <mxPoint x="339.40999999999997" y="200" as="targetPoint" />
          </mxGeometry>
        </mxCell>
      </root>
    </mxGraphModel>
  </diagram>
</mxfile>
